# xmcd
#
# Track frame offsets: 
#        150
#        18111
#        35829
#        52080
#        73930
#        90376
#        108907
#        122952
#        138934
#        156326
#
# Disc length: 2315 seconds
#
# Revision: 0
# Processed by: cddbd v1.5.2PL0 Copyright (c) Steve Scherf et al.
# Submitted via: ExactAudioCopyFreeDBPlugin 1.0
#
DISCID=8909090a
DTITLE=Anders Osborne - Buddha and the Blues
DYEAR=2019
DGENRE=Blues
TTITLE0=Alone
TTITLE1=Fields of Honey
TTITLE2=Running
TTITLE3=Smoke and Mirrors
TTITLE4=Aching for You Love
TTITLE5=Escape
TTITLE6=Buddha and the Blues
TTITLE7=The One I Love
TTITLE8=Traveling with Friends
TTITLE9=Alone (Unplugged)
EXTD=
EXTT0=
EXTT1=
EXTT2=
EXTT3=
EXTT4=
EXTT5=
EXTT6=
EXTT7=
EXTT8=
EXTT9=
PLAYORDER=
